# xmcd CD database file
# Generated: Mon Jun 18 23:55:47 2001 by KSCD
# 
# Track frame offsets:
#       150
#       16285
#       34658
#       53796
#       69022
#       87202
#       111299
#       129536
#       149031
#       165797
#       186533
#       208086
#       222152
#       240217
#       260894
#       275002
#       289858
#       304391
#       323728
#       340658
#
# Disc length: 4747 seconds
#
# Revision: 2
# Processed by: cddbd v1.4b41PL3 Copyright (c) Steve Scherf et al.
# Submitted via: Kscd 1.3.0
#
DISCID=2d128914
DTITLE=Ronnie Milsap - 40 #1 Hits
DYEAR=1900
DGENRE=
TTITLE0=He Got You
TTITLE1=Inside
TTITLE2=Stranger In My House
TTITLE3=Don't You Know How Much I Love You
TTITLE4=Show Her
TTITLE5=Still Losing You
TTITLE6=She Keeps The Home Fires Burning
TTITLE7=Lost In The Fifties Tonight
TTITLE8=Happy, Happy Birthday Baby
TTITLE9=In Love
TTITLE10=How Do I Turn You On
TTITLE11=Snap Your Fingers
TTITLE12=Make No Mistake She's Mine
TTITLE13=Where Do The Nights Go
TTITLE14=Don't You Ever Get Tired (Of Hurting Me)
TTITLE15=A Woman In Love
TTITLE16=Stranger Things Have Happened
TTITLE17=Since I Don't Have You
TTITLE18=Livin' On Love 
TTITLE19=Time Love And Money
EXTD=
EXTT0=
EXTT1=
EXTT2=
EXTT3=
EXTT4=
EXTT5=
EXTT6=
EXTT7=
EXTT8=
EXTT9=
EXTT10=
EXTT11=
EXTT12=
EXTT13=
EXTT14=
EXTT15=
EXTT16=
EXTT17=
EXTT18=
EXTT19=
PLAYORDER=
